# xmcd
#
# Track frame offsets:
#	150
#	21300
#	84160
#	123685
#	173635
#	197600
#	212495
#	240960
#
# Disc length: 3612 seconds
#
# Revision: 2
# Processed by: cddbd v1.5.1PL2 Copyright (c) Steve Scherf et al.
# Submitted via: EasyCDDAExtractor 8.0.2.1
#
DISCID=5c0e1a08
DTITLE=Dio - BKZ Oktyabrskiy St Petersburg 25-09-05 Disc 2
DYEAR=2005
DGENRE=Hard Rock
TTITLE0=Rainbow In The Dark
TTITLE1=Shame On The Night - Guitar Solo
TTITLE2=Gates Of Babylon
TTITLE3=Heaven and Hell
TTITLE4=Man On The Silver Mountain
TTITLE5=Long Live Rock and Roll
TTITLE6=The Last In Line
TTITLE7=We Rock
EXTD=
EXTT0=
EXTT1=
EXTT2=
EXTT3=
EXTT4=
EXTT5=
EXTT6=
EXTT7=
PLAYORDER=
